<svg xmlns="http://www.w3.org/2000/svg" width="6382.000000pt" height="1253.000000pt" viewBox="0 0 6382.000000 1253.000000" preserveAspectRatio="xMidYMid meet"><g transform="translate(0.000000,1253.000000) scale(0.100000,-0.100000)" fill="#000000" stroke="none"><path d="M8480 12019 c-14 -5 -284 -269 -600 -585 l-575 -574 -55 0 -54 0 -251 249 c-266 264 -287 280 -363 266 -33 -6 -316 -285 -2530 -2498 -1371 -1371 -2499 -2503 -2507 -2517 -12 -22 -19 -76 -16 -120 1 -8 111 -125 245 -260 134 -135 252 -260 261 -279 38 -75 57 -53 -570 -681 -611 -613 -605 -607 -590 -688 6 -32 46 -77 278 -310 150 -151 284 -280 299 -288 35 -18 91 -18 126 0 15 8 281 269 592 581 398 398 574 568 595 574 66 18 93 4 202 -102 114 -110 149 -167 138 -219 -6 -26 -74 -100 -310 -338 -166 -168 -310 -316 -319 -330 -24 -36 -21 -100 7 -136 49 -64 548 -552 576 -564 19 -7 45 -10 68 -5 33 6 80 49 353 319 333 331 337 334 412 319 34 -7 187 -145 239 -217 34 -45 39 -107 13 -146 -9 -14 -151 -160 -316 -326 -278 -279 -300 -304 -305 -342 -3 -22 -3 -51 0 -64 4 -13 133 -151 288 -306 305 -306 323 -319 391 -292 20 8 152 131 338 315 168 167 315 308 327 314 32 16 85 14 113 -5 38 -25 178 -164 211 -208 32 -44 38 -91 15 -134 -8 -15 -265 -277 -571 -582 -306 -305 -563 -567 -571 -582 -8 -15 -14 -51 -14 -80 l0 -52 247 -248 247 -248 146 0 145 0 545 545 545 545 46 0 c63 0 83 -16 339 -275 118 -119 227 -223 242 -231 32 -17 91 -18 121 -3 31 16 4995 4978 5013 5011 17 32 18 86 3 125 -6 15 -123 141 -260 279 -236 237 -249 252 -249 288 0 20 6 49 14 64 8 15 258 270 556 567 298 297 555 558 571 579 24 32 29 49 29 95 l0 55 -277 279 c-162 163 -292 285 -312 294 -22 9 -47 12 -75 8 -38 -6 -80 -46 -621 -586 -610 -608 -602 -602 -672 -584 -34 8 -247 215 -263 256 -8 17 -9 44 -5 66 6 33 48 80 321 354 l314 315 0 64 0 64 -272 274 c-150 150 -285 280 -300 288 -15 8 -48 14 -74 14 l-48 0 -315 -314 c-402 -400 -374 -390 -564 -198 -123 125 -140 156 -117 217 6 17 143 162 316 336 328 329 332 334 314 416 -7 30 -56 84 -277 305 -147 148 -280 276 -295 284 -32 17 -76 18 -115 3 -15 -5 -168 -149 -339 -320 l-310 -309 -55 0 -55 0 -123 125 -124 124 5 57 5 56 570 571 c314 315 576 582 582 594 6 12 11 43 11 69 l0 48 -289 289 -288 290 -49 3 c-27 2 -60 -1 -74 -7z m181 -3685 l1989 -1989 0 -60 0 -60 -1972 -1973 c-1388 -1387 -1985 -1978 -2015 -1993 -85 -41 74 -192 -2095 1978 -1339 1340 -1982 1989 -1992 2013 -12 29 -12 41 -2 70 10 26 547 568 1992 2013 1089 1088 1986 1983 1994 1988 8 5 37 8 64 6 l48 -4 1989 -1989z"></path><path d="M6525 9652 c-6 -4 -32 -14 -60 -20 -27 -7 -79 -27 -115 -44 -57 -28 -106 -73 -397 -362 -183 -182 -333 -334 -333 -338 0 -7 260 -446 533 -898 71 -118 140 -233 152 -255 13 -22 152 -256 310 -520 158 -264 366 -613 463 -775 97 -162 291 -486 431 -720 140 -234 260 -436 268 -450 11 -21 13 264 13 1710 l0 1735 -412 411 c-436 435 -471 463 -595 499 -32 10 -66 21 -75 26 -22 11 -171 12 -183 1z"></path><path d="M3788 7066 c-550 -554 -617 -625 -624 -659 -16 -91 -33 -71 634 -739 339 -340 619 -618 622 -618 3 0 5 594 5 1320 0 874 -3 1319 -10 1318 -5 0 -288 -281 -627 -622z"></path><path d="M8800 6370 c0 -726 3 -1320 8 -1320 4 0 284 278 623 618 570 570 617 621 629 664 24 91 45 66 -628 741 -339 339 -620 617 -624 617 -5 0 -8 -594 -8 -1320z"></path><path d="M5440 5754 l0 -1730 418 -416 c443 -441 445 -443 592 -493 91 -31 246 -29 342 3 121 42 177 87 506 415 171 172 312 315 312 318 0 4 -53 94 -117 200 -64 107 -171 286 -239 399 -67 113 -154 259 -194 325 -40 66 -82 136 -92 155 -11 19 -96 161 -188 315 -268 448 -538 898 -810 1355 -433 726 -522 875 -526 879 -2 2 -4 -774 -4 -1725z"></path><path d="M24259 9355 c-165 -27 -299 -71 -429 -142 -196 -107 -376 -294 -477 -498 -153 -306 -156 -720 -9 -1030 160 -338 453 -565 841 -651 108 -24 388 -30 505 -10 452 74 795 343 945 741 112 295 93 682 -46 957 -161 319 -474 551 -841 623 -115 23 -379 28 -489 10z m416 -381 c39 -9 117 -38 175 -66 92 -44 115 -61 195 -142 73 -73 100 -109 138 -183 225 -438 40 -975 -395 -1143 -230 -89 -493 -75 -711 37 -73 38 -109 64 -177 133 -164 165 -232 336 -232 580 0 423 275 743 687 799 86 12 227 5 320 -15z"></path><path d="M27206 9359 c-569 -74 -987 -500 -1036 -1061 -41 -467 168 -884 558 -1117 196 -117 408 -171 670 -171 336 0 624 107 835 308 37 36 67 68 67 72 0 4 -61 65 -135 135 l-136 127 -52 -49 c-99 -93 -218 -160 -346 -195 -110 -30 -332 -30 -446 1 -397 107 -627 452 -584 875 29 286 182 507 431 626 131 63 220 82 378 82 107 0 152 -4 215 -21 141 -38 250 -98 352 -194 l53 -50 135 128 c74 70 135 131 135 135 0 11 -108 111 -170 157 -231 173 -588 255 -924 212z"></path><path d="M29689 9355 c-165 -27 -299 -71 -429 -142 -196 -107 -376 -294 -477 -498 -153 -306 -156 -720 -9 -1030 160 -338 453 -565 841 -651 108 -24 388 -30 505 -10 452 74 795 343 945 741 112 295 93 682 -46 957 -161 319 -474 551 -841 623 -115 23 -379 28 -489 10z m416 -381 c39 -9 117 -38 175 -66 92 -44 115 -61 195 -142 73 -73 100 -109 138 -183 225 -438 40 -975 -395 -1143 -230 -89 -493 -75 -711 37 -73 38 -109 64 -177 133 -164 165 -232 336 -232 580 0 423 275 743 687 799 86 12 227 5 320 -15z"></path><path d="M39659 9355 c-165 -27 -299 -71 -429 -142 -196 -107 -376 -294 -477 -498 -153 -306 -156 -720 -9 -1030 160 -338 453 -565 841 -651 108 -24 388 -30 505 -10 452 74 795 343 945 741 112 295 93 682 -46 957 -161 319 -474 551 -841 623 -115 23 -379 28 -489 10z m416 -381 c39 -9 117 -38 175 -66 92 -44 115 -61 195 -142 73 -73 100 -109 138 -183 225 -438 40 -975 -395 -1143 -230 -89 -493 -75 -711 37 -73 38 -109 64 -177 133 -164 165 -232 336 -232 580 0 423 275 743 687 799 86 12 227 5 320 -15z"></path><path d="M45530 9364 c-14 -2 -59 -9 -100 -15 -316 -46 -561 -231 -640 -484 -29 -92 -32 -261 -6 -350 41 -139 137 -256 275 -337 78 -45 275 -111 521 -172 366 -92 469 -141 523 -246 70 -138 -2 -286 -171 -351 -135 -51 -365 -61 -548 -24 -157 32 -350 110 -460 186 -23 15 -46 29 -53 31 -6 2 -44 -70 -85 -159 l-74 -162 57 -39 c151 -106 367 -184 604 -217 132 -19 365 -19 490 0 359 54 614 255 672 530 30 142 12 296 -46 405 -40 75 -153 185 -240 233 -88 49 -263 107 -486 163 -327 80 -426 118 -501 188 -49 45 -72 96 -72 157 0 74 18 124 63 175 83 95 205 135 412 137 72 0 164 -5 205 -12 101 -18 268 -72 365 -120 44 -22 83 -37 87 -33 3 4 34 76 68 159 47 114 60 156 52 166 -37 45 -274 135 -441 168 -101 20 -403 35 -471 23z"></path><path d="M47999 9355 c-165 -27 -299 -71 -429 -142 -196 -107 -376 -294 -477 -498 -153 -306 -156 -720 -9 -1030 160 -338 453 -565 841 -651 108 -24 388 -30 505 -10 452 74 795 343 945 741 112 295 93 682 -46 957 -161 319 -474 551 -841 623 -115 23 -379 28 -489 10z m416 -381 c39 -9 117 -38 175 -66 92 -44 115 -61 195 -142 73 -73 100 -109 138 -183 225 -438 40 -975 -395 -1143 -230 -89 -493 -75 -711 37 -73 38 -109 64 -177 133 -164 165 -232 336 -232 580 0 423 275 743 687 799 86 12 227 5 320 -15z"></path><path d="M59089 9355 c-165 -27 -299 -71 -429 -142 -196 -107 -376 -294 -477 -498 -153 -306 -156 -720 -9 -1030 160 -338 453 -565 841 -651 108 -24 388 -30 505 -10 452 74 795 343 945 741 112 295 93 682 -46 957 -161 319 -474 551 -841 623 -115 23 -379 28 -489 10z m416 -381 c39 -9 117 -38 175 -66 92 -44 115 -61 195 -142 73 -73 100 -109 138 -183 225 -438 40 -975 -395 -1143 -230 -89 -493 -75 -711 37 -73 38 -109 64 -177 133 -164 165 -232 336 -232 580 0 423 275 743 687 799 86 12 227 5 320 -15z"></path><path d="M14060 8190 l0 -1150 215 0 215 0 0 330 0 330 273 0 c437 0 599 24 792 119 167 83 280 193 351 346 57 123 69 183 69 355 0 183 -12 240 -80 375 -124 247 -377 397 -735 435 -52 5 -321 10 -597 10 l-503 0 0 -1150z m1139 766 c107 -27 183 -70 244 -136 83 -89 101 -144 101 -300 0 -107 -3 -133 -23 -183 -31 -80 -112 -165 -195 -206 -113 -55 -168 -63 -518 -68 l-318 -5 0 462 0 462 323 -5 c253 -4 336 -8 386 -21z"></path><path d="M16200 9160 l0 -180 380 0 380 0 0 -970 0 -970 215 0 215 0 0 970 0 970 380 0 380 0 0 180 0 180 -975 0 -975 0 0 -180z"></path><path d="M20570 8190 l0 -1150 210 0 210 0 2 776 3 776 630 -775 630 -776 178 0 177 -1 0 1150 0 1150 -210 0 -210 0 -2 -778 -3 -778 -634 778 -633 778 -174 0 -174 0 0 -1150z"></path><path d="M31750 8190 l0 -1150 815 0 815 0 0 180 0 180 -600 0 -600 0 0 970 0 970 -215 0 -215 0 0 -1150z"></path><path d="M34602 9323 c-6 -10 -231 -511 -502 -1113 -271 -602 -501 -1112 -511 -1132 l-19 -38 222 0 223 0 111 263 111 262 577 0 578 0 112 -260 112 -260 229 -3 c183 -2 226 0 218 10 -6 7 -241 525 -523 1151 l-514 1137 -207 0 c-188 0 -209 -2 -217 -17z m427 -908 c116 -270 211 -494 211 -498 0 -4 -192 -7 -426 -7 -400 0 -426 1 -419 17 22 59 418 983 420 981 1 -2 97 -224 214 -493z"></path><path d="M37590 8190 l0 -1150 215 0 215 0 0 1150 0 1150 -215 0 -215 0 0 -1150z"></path><path d="M41400 9160 l0 -180 380 0 380 0 0 -970 0 -970 215 0 215 0 0 970 0 970 380 0 380 0 0 180 0 180 -975 0 -975 0 0 -180z"></path><path d="M50070 8190 l0 -1150 815 0 815 0 0 180 0 180 -600 0 -600 0 0 970 0 970 -215 0 -215 0 0 -1150z"></path><path d="M52140 8637 c0 -431 4 -735 11 -787 53 -429 281 -702 674 -807 93 -25 114 -27 315 -27 191 -1 225 2 303 22 374 94 593 319 680 697 20 86 21 124 24 848 l4 757 -210 0 -210 0 -3 -737 c-4 -724 -4 -740 -26 -816 -63 -225 -198 -355 -409 -392 -221 -40 -425 8 -552 130 -67 64 -109 137 -142 245 -23 75 -23 77 -27 823 l-3 747 -214 0 -215 0 0 -703z"></path><path d="M54580 9160 l0 -180 380 0 380 0 0 -970 0 -970 215 0 215 0 0 970 0 970 380 0 380 0 0 180 0 180 -975 0 -975 0 0 -180z"></path><path d="M57020 8190 l0 -1150 215 0 215 0 0 1150 0 1150 -215 0 -215 0 0 -1150z"></path><path d="M61150 8190 l0 -1150 210 0 210 0 2 776 3 776 630 -775 630 -776 178 0 177 -1 0 1150 0 1150 -210 0 -210 0 -2 -778 -3 -778 -634 778 -633 778 -174 0 -174 0 0 -1150z"></path><path d="M18515 7536 c-160 -74 -205 -289 -88 -425 103 -121 298 -122 404 -4 96 106 90 282 -13 380 -78 75 -205 95 -303 49z"></path><path d="M25610 5455 l0 -1075 70 0 70 0 0 224 0 223 152 139 c84 76 173 158 198 181 l46 42 319 -404 320 -404 94 0 95 -1 -26 28 c-45 48 -688 863 -688 871 0 7 525 506 614 583 l31 27 -95 0 -95 0 -480 -439 -480 -439 -3 760 -2 759 -70 0 -70 0 0 -1075z"></path><path d="M40090 6033 l0 -496 -38 59 c-59 90 -166 185 -264 233 -115 57 -203 74 -358 68 -106 -3 -138 -8 -213 -34 -48 -17 -113 -46 -144 -64 -74 -44 -198 -168 -242 -242 -76 -129 -119 -326 -107 -485 33 -403 311 -680 702 -699 281 -14 507 101 643 327 l21 35 0 -177 0 -178 70 0 70 0 0 1075 0 1075 -70 0 -70 0 0 -497z m-461 -278 c106 -25 188 -72 271 -155 127 -127 183 -267 183 -460 0 -185 -54 -334 -163 -452 -107 -117 -240 -177 -410 -185 -183 -9 -318 39 -441 155 -125 117 -186 254 -196 437 -18 323 158 581 448 659 71 19 228 20 308 1z"></path><path d="M58240 5455 l0 -1075 70 0 70 0 0 1075 0 1075 -70 0 -70 0 0 -1075z"></path><path d="M37992 6474 c-12 -8 -29 -28 -37 -44 -60 -116 81 -225 179 -139 59 51 58 132 -2 179 -31 25 -108 27 -140 4z"></path><path d="M46262 6474 c-12 -8 -29 -28 -37 -44 -60 -116 81 -225 179 -139 59 51 58 132 -2 179 -31 25 -108 27 -140 4z"></path><path d="M59142 6474 c-12 -8 -29 -28 -37 -44 -60 -116 81 -225 179 -139 59 51 58 132 -2 179 -31 25 -108 27 -140 4z"></path><path d="M14430 6403 c0 -4 154 -462 342 -1016 l343 -1008 79 3 79 3 312 897 c171 494 313 900 316 902 3 3 128 -351 278 -787 151 -436 292 -843 313 -904 l40 -113 78 0 78 0 18 53 c9 28 163 482 340 1007 178 525 324 959 324 963 0 4 -32 7 -71 5 l-71 -3 -299 -880 c-165 -484 -305 -894 -312 -911 -11 -30 -28 14 -327 882 l-315 914 -70 0 -71 0 -313 -902 c-173 -497 -316 -907 -319 -912 -3 -5 -143 400 -312 900 l-307 909 -76 3 c-43 2 -77 -1 -77 -5z"></path><path d="M49290 6055 l0 -165 -140 0 -140 0 0 -60 0 -60 140 0 139 0 3 -562 3 -563 28 -60 c66 -142 192 -215 372 -215 109 0 226 35 292 87 l22 18 -31 51 -31 51 -41 -28 c-84 -59 -227 -73 -328 -32 -46 18 -109 87 -128 140 -11 30 -15 146 -17 576 l-4 537 241 0 240 0 0 60 0 60 -240 0 -240 0 0 165 0 165 -70 0 -70 0 0 -165z"></path><path d="M60070 6055 l0 -165 -140 0 -140 0 0 -60 0 -60 140 0 139 0 3 -562 3 -563 28 -60 c66 -142 192 -215 372 -215 109 0 226 35 292 87 l22 18 -31 51 -31 51 -41 -28 c-84 -59 -227 -73 -328 -32 -46 18 -109 87 -128 140 -11 30 -15 146 -17 576 l-4 537 241 0 240 0 0 60 0 60 -240 0 -240 0 0 165 0 165 -70 0 -70 0 0 -165z"></path><path d="M18160 5880 c-129 -34 -214 -83 -315 -185 -155 -154 -217 -312 -218 -555 -1 -158 14 -232 73 -355 92 -191 265 -332 480 -392 102 -28 339 -25 445 5 96 28 192 77 263 135 86 71 87 75 40 131 l-41 48 -24 -31 c-37 -47 -151 -117 -238 -147 -104 -35 -264 -43 -375 -20 -268 56 -451 262 -483 543 l-5 43 651 2 652 3 -3 87 c-7 216 -109 431 -260 553 -74 60 -202 122 -288 140 -98 21 -262 18 -354 -5z m349 -127 c181 -47 346 -217 396 -409 8 -32 15 -75 15 -96 l0 -38 -575 0 -575 0 0 28 c0 16 9 64 20 107 82 319 389 494 719 408z"></path><path d="M21091 5884 c-143 -31 -302 -140 -369 -253 l-27 -46 -3 153 -3 152 -69 0 -70 0 0 -755 0 -755 69 0 70 0 3 473 4 472 27 82 c83 247 271 372 547 361 177 -7 294 -69 370 -195 72 -120 74 -137 78 -695 l3 -498 69 0 69 0 4 473 c3 401 6 480 20 527 60 201 194 332 384 376 94 22 257 15 337 -14 127 -46 223 -156 262 -299 16 -61 19 -119 22 -565 l3 -498 70 0 70 0 -3 528 c-4 521 -4 528 -27 597 -36 107 -68 164 -133 231 -107 111 -246 164 -435 164 -58 0 -136 -7 -176 -16 -162 -36 -326 -148 -397 -272 -19 -34 -37 -61 -40 -62 -3 0 -18 27 -33 60 -37 79 -130 178 -206 219 -126 67 -330 90 -490 55z"></path><path d="M24118 5890 c-119 -20 -250 -71 -348 -134 -94 -62 -94 -62 -51 -122 l37 -51 37 33 c21 17 68 48 105 67 262 137 592 119 731 -39 64 -73 83 -136 89 -291 l4 -133 -321 0 c-356 0 -425 -8 -538 -60 -125 -58 -209 -181 -220 -323 -21 -277 196 -466 534 -467 232 0 412 80 525 234 l28 39 0 -131 0 -132 70 0 70 0 0 513 c-1 564 -5 618 -59 732 -61 132 -188 227 -346 260 -74 16 -267 18 -347 5z m602 -931 l0 -152 -32 -56 c-42 -75 -140 -170 -210 -204 -98 -47 -168 -60 -303 -55 -180 7 -283 55 -350 163 -26 42 -30 59 -33 135 -5 109 19 171 85 230 87 76 153 87 541 89 l302 1 0 -151z"></path><path d="M27770 5880 c-129 -34 -214 -83 -315 -185 -155 -154 -217 -312 -218 -555 -1 -158 14 -232 73 -355 92 -191 265 -332 480 -392 102 -28 339 -25 445 5 96 28 192 77 263 135 86 71 87 75 40 131 l-41 48 -24 -31 c-37 -47 -151 -117 -238 -147 -104 -35 -264 -43 -375 -20 -268 56 -451 262 -483 543 l-5 43 651 2 652 3 -3 87 c-7 216 -109 431 -260 553 -74 60 -202 122 -288 140 -98 21 -262 18 -354 -5z m349 -127 c181 -47 346 -217 396 -409 8 -32 15 -75 15 -96 l0 -38 -575 0 -575 0 0 28 c0 16 9 64 20 107 82 319 389 494 719 408z"></path><path d="M32221 5889 c-151 -30 -262 -89 -377 -204 -78 -77 -98 -105 -137 -185 -64 -131 -80 -207 -81 -365 0 -157 17 -231 81 -362 130 -267 393 -415 712 -400 332 15 583 209 683 527 20 66 23 95 23 235 0 140 -3 169 -23 235 -105 334 -377 532 -727 529 -60 -1 -130 -5 -154 -10z m308 -134 c106 -25 188 -72 271 -155 127 -127 183 -267 183 -460 0 -185 -54 -334 -163 -452 -107 -117 -240 -177 -410 -185 -183 -9 -318 39 -441 155 -125 117 -186 254 -196 437 -18 323 158 581 448 659 71 19 228 20 308 1z"></path><path d="M36340 5884 c-144 -31 -285 -130 -355 -248 l-35 -60 0 157 0 157 -70 0 -70 0 0 -755 0 -755 69 0 70 0 3 468 c4 450 5 470 27 542 31 102 66 164 131 230 92 93 207 140 342 140 l68 0 0 70 0 70 -57 -1 c-32 0 -87 -7 -123 -15z"></path><path d="M41360 5880 c-129 -34 -214 -83 -315 -185 -155 -154 -217 -312 -218 -555 -1 -158 14 -232 73 -355 92 -191 265 -332 480 -392 102 -28 339 -25 445 5 96 28 192 77 263 135 86 71 87 75 40 131 l-41 48 -24 -31 c-37 -47 -151 -117 -238 -147 -104 -35 -264 -43 -375 -20 -268 56 -451 262 -483 543 l-5 43 651 2 652 3 -3 87 c-7 216 -109 431 -260 553 -74 60 -202 122 -288 140 -98 21 -262 18 -354 -5z m349 -127 c181 -47 346 -217 396 -409 8 -32 15 -75 15 -96 l0 -38 -575 0 -575 0 0 28 c0 16 9 64 20 107 82 319 389 494 719 408z"></path><path d="M43158 5890 c-119 -20 -250 -71 -348 -134 -94 -62 -94 -62 -51 -122 l37 -51 37 33 c21 17 68 48 105 67 262 137 592 119 731 -39 64 -73 83 -136 89 -291 l4 -133 -321 0 c-356 0 -425 -8 -538 -60 -125 -58 -209 -181 -220 -323 -21 -277 196 -466 534 -467 232 0 412 80 525 234 l28 39 0 -131 0 -132 70 0 70 0 0 513 c-1 564 -5 618 -59 732 -61 132 -188 227 -346 260 -74 16 -267 18 -347 5z m602 -931 l0 -152 -32 -56 c-42 -75 -140 -170 -210 -204 -98 -47 -168 -60 -303 -55 -180 7 -283 55 -350 163 -26 42 -30 59 -33 135 -5 109 19 171 85 230 87 76 153 87 541 89 l302 1 0 -151z"></path><path d="M47702 5881 c-153 -38 -283 -125 -361 -242 l-41 -61 0 156 0 156 -70 0 -70 0 0 -755 0 -755 69 0 70 0 3 468 c4 508 5 515 65 640 37 77 150 190 225 225 158 75 388 77 535 6 64 -31 136 -101 171 -167 59 -111 62 -136 62 -679 l0 -493 75 0 75 0 0 479 c0 555 -5 604 -71 740 -71 145 -190 239 -355 281 -101 26 -278 26 -382 1z"></path><path d="M50931 5889 c-151 -30 -262 -89 -377 -204 -78 -77 -98 -105 -137 -185 -64 -131 -80 -207 -81 -365 0 -157 17 -231 81 -362 130 -267 393 -415 712 -400 332 15 583 209 683 527 20 66 23 95 23 235 0 140 -3 169 -23 235 -105 334 -377 532 -727 529 -60 -1 -130 -5 -154 -10z m308 -134 c106 -25 188 -72 271 -155 127 -127 183 -267 183 -460 0 -185 -54 -334 -163 -452 -107 -117 -240 -177 -410 -185 -183 -9 -318 39 -441 155 -125 117 -186 254 -196 437 -18 323 158 581 448 659 71 19 228 20 308 1z"></path><path d="M53860 5884 c-144 -31 -285 -130 -355 -248 l-35 -60 0 157 0 157 -70 0 -70 0 0 -755 0 -755 69 0 70 0 3 468 c4 450 5 470 27 542 31 102 66 164 131 230 92 93 207 140 342 140 l68 0 0 70 0 70 -57 -1 c-32 0 -87 -7 -123 -15z"></path><path d="M54940 5880 c-129 -34 -214 -83 -315 -185 -155 -154 -217 -312 -218 -555 -1 -158 14 -232 73 -355 92 -191 265 -332 480 -392 102 -28 339 -25 445 5 96 28 192 77 263 135 86 71 87 75 40 131 l-41 48 -24 -31 c-37 -47 -151 -117 -238 -147 -104 -35 -264 -43 -375 -20 -268 56 -451 262 -483 543 l-5 43 651 2 652 3 -3 87 c-7 216 -109 431 -260 553 -74 60 -202 122 -288 140 -98 21 -262 18 -354 -5z m349 -127 c181 -47 346 -217 396 -409 8 -32 15 -75 15 -96 l0 -38 -575 0 -575 0 0 28 c0 16 9 64 20 107 82 319 389 494 719 408z"></path><path d="M56738 5890 c-119 -20 -250 -71 -348 -134 -94 -62 -94 -62 -51 -122 l37 -51 37 33 c21 17 68 48 105 67 262 137 592 119 731 -39 64 -73 83 -136 89 -291 l4 -133 -321 0 c-356 0 -425 -8 -538 -60 -125 -58 -209 -181 -220 -323 -21 -277 196 -466 534 -467 232 0 412 80 525 234 l28 39 0 -131 0 -132 70 0 70 0 0 513 c-1 564 -5 618 -59 732 -61 132 -188 227 -346 260 -74 16 -267 18 -347 5z m602 -931 l0 -152 -32 -56 c-42 -75 -140 -170 -210 -204 -98 -47 -168 -60 -303 -55 -180 7 -283 55 -350 163 -26 42 -30 59 -33 135 -5 109 19 171 85 230 87 76 153 87 541 89 l302 1 0 -151z"></path><path d="M29875 5858 c7 -18 160 -357 339 -752 l325 -720 -31 -70 c-91 -211 -160 -311 -240 -349 -119 -56 -277 -35 -388 53 l-37 30 -36 -55 -37 -54 38 -31 c144 -119 403 -135 560 -36 46 29 120 108 158 167 15 24 211 449 435 944 l406 900 -69 3 c-39 2 -72 1 -75 -2 -3 -2 -137 -300 -298 -660 -162 -361 -298 -662 -302 -670 -5 -9 -113 222 -308 660 l-300 673 -77 1 -77 0 14 -32z"></path><path d="M33713 5368 c4 -572 2 -558 66 -694 59 -126 190 -233 341 -279 86 -26 268 -31 370 -11 161 33 294 119 379 247 l41 61 0 -156 0 -156 70 0 70 0 0 755 0 755 -69 0 -69 0 -4 -462 c-5 -512 -6 -516 -73 -654 -38 -77 -117 -161 -196 -207 -67 -39 -187 -67 -288 -67 -253 1 -412 113 -477 336 -15 51 -17 124 -21 557 l-5 497 -69 0 -70 0 4 -522z"></path><path d="M37990 5135 l0 -755 70 0 70 0 0 755 0 755 -70 0 -70 0 0 -755z"></path><path d="M46260 5135 l0 -755 70 0 70 0 0 755 0 755 -70 0 -70 0 0 -755z"></path><path d="M59140 5135 l0 -755 70 0 70 0 0 755 0 755 -70 0 -70 0 0 -755z"></path><path d="M61025 5858 c7 -18 160 -357 339 -752 l325 -720 -31 -70 c-91 -211 -160 -311 -240 -349 -119 -56 -277 -35 -388 53 l-37 30 -36 -55 -37 -54 38 -31 c144 -119 403 -135 560 -36 46 29 120 108 158 167 15 24 211 449 435 944 l406 900 -69 3 c-39 2 -72 1 -75 -2 -3 -2 -137 -300 -298 -660 -162 -361 -298 -662 -302 -670 -5 -9 -113 222 -308 660 l-300 673 -77 1 -77 0 14 -32z"></path><path d="M44544 4576 c-28 -28 -34 -42 -34 -76 0 -51 25 -96 62 -113 16 -6 28 -15 28 -20 0 -4 -20 -94 -45 -199 -25 -106 -45 -194 -45 -196 0 -1 24 -2 52 0 l52 3 64 220 c73 252 82 307 58 353 -23 45 -53 62 -109 62 -42 0 -54 -5 -83 -34z"></path></g></svg>